Coordinates
version=1
nRows=10
nColumns=40
inDegrees=yes

Units are S.I. units (second, meters, Newtons, ...)
Angles are in degrees.

endheader
time	pelvis_tilt	pelvis_list	pelvis_rotation	pelvis_tx	pelvis_ty	pelvis_tz	hip_flexion_r	hip_adduction_r	hip_rotation_r	knee_angle_r	knee_angle_r_beta	ankle_angle_r	subtalar_angle_r	mtp_angle_r	hip_flexion_l	hip_adduction_l	hip_rotation_l	knee_angle_l	knee_angle_l_beta	ankle_angle_l	subtalar_angle_l	mtp_angle_l	lumbar_extension	lumbar_bending	lumbar_rotation	arm_flex_r	arm_add_r	arm_rot_r	elbow_flex_r	pro_sup_r	wrist_flex_r	wrist_dev_r	arm_flex_l	arm_add_l	arm_rot_l	elbow_flex_l	pro_sup_l	wrist_flex_l	wrist_dev_l
     47.37750000	     -1.14223420	     -4.45962999	     -1.50489700	      1.04278375	      0.92973933	      0.47528494	     15.48765801	      0.86443034	    -11.95891683	     20.34563477	     20.34563477	      7.11215704	     -4.37931977	     -4.55136142	      3.69375406	    -10.33355603	     -8.84837347	     33.12128835	     33.12128835	     15.15893364	    -11.81720497	     -6.94125182	     -8.67292974	      5.81243862	      0.44033329	      4.20705401	    -14.33151066	     -4.11003370	     39.40619483	     45.59054105	      0.00000000	      0.00000000	     12.78562111	    -13.19870476	     -9.75661479	     47.20606290	     46.71813347	      0.00000000	      0.00000000
     47.39085714	     -1.01868975	     -4.61187039	     -1.17252464	      1.04297864	      0.93027572	      0.47824523	     14.72484073	      1.16267373	    -12.52341155	     19.97527724	     19.97527724	      7.40795729	     -3.92042080	     -4.79963391	      5.44483209	    -11.01443371	     -7.67130077	     36.84278528	     36.84278528	     13.01348462	    -13.63114887	     -8.73003010	     -8.75314382	      5.93752134	      0.55692822	      5.49182383	    -14.66663754	     -3.80573732	     40.76063380	     45.54294011	      0.00000000	      0.00000000	     12.43124380	    -12.95053159	     -9.04203104	     45.45301712	     46.63841692	      0.00000000	      0.00000000
     47.40421429	     -0.68395878	     -4.66165841	     -0.95405036	      1.04303470	      0.93103692	      0.48129167	     13.76291226	      1.42314995	    -12.73059846	     19.62724167	     19.62724167	      7.80557860	     -3.67885916	     -4.87349025	      7.04227407	    -11.64448866	     -6.87357517	     40.72814741	     40.72814741	     11.39619026	    -14.49021504	     -8.91428148	     -9.18223009	      5.85208974	      0.97543771	      7.16065260	    -14.94378682	     -3.88033946	     41.46431020	     45.53179816	      0.00000000	      0.00000000	     11.96812991	    -12.59585362	     -8.86971065	     44.94275546	     46.61181769	      0.00000000	      0.00000000
     47.41757143	     -0.85160922	     -4.96116924	     -0.47950012	      1.04266076	      0.93091319	      0.48393569	     13.37290092	      1.84792329	    -13.49996806	     19.29319986	     19.29319986	      7.95686916	     -3.26888950	     -5.04241790	      9.55563518	    -12.33901454	     -5.32170771	     44.87040656	     44.87040656	      9.38752692	    -15.97685336	     -8.85584427	     -8.86868768	      6.16647576	      0.46355558	      8.83501716	    -15.07973368	     -3.63506567	     42.88546894	     45.47938743	      0.00000000	      0.00000000	     11.25818055	    -12.51418119	     -8.36155079	     42.88215217	     46.53897578	      0.00000000	      0.00000000
     47.43092857	     -0.77319771	     -5.10363613	     -0.10634011	      1.04222971	      0.93107180	      0.48651474	     12.75469212	      2.14194802	    -13.99419080	     19.00517189	     19.00517189	      8.21499289	     -2.97254526	     -5.30720070	     11.73094091	    -12.83425871	     -4.10649531	     48.81038057	     48.81038057	      7.83848417	    -16.70801302	     -7.54703034	     -8.93161720	      6.25051512	      0.71233949	     10.17166309	    -15.65502470	     -2.85342364	     44.60041003	     45.39306244	      0.00000000	      0.00000000	     11.22506116	    -12.15393103	     -7.56214379	     40.47443698	     46.44308914	      0.00000000	      0.00000000
     47.44428571	     -0.68198831	     -5.31641602	      0.25734190	      1.04165404	      0.93120037	      0.48902145	     12.13543459	      2.54748465	    -14.35618586	     18.69794376	     18.69794376	      8.44853408	     -2.87942402	     -5.34474873	     13.83525236	    -13.39362347	     -3.04382361	     52.39666299	     52.39666299	      6.03005531	    -17.30620287	     -6.95242466	     -9.06153644	      6.36965672	      1.00289454	     11.81226873	    -16.06159191	     -2.89871389	     45.50766016	     45.37324882	      0.00000000	      0.00000000	     10.60811198	    -11.71515313	     -7.32787301	     39.79366169	     46.40595030	      0.00000000	      0.00000000
     47.45764286	     -0.71494086	     -5.34409514	      0.65736872	      1.04086894	      0.93119353	      0.49117931	     11.69886745	      2.71771081	    -14.70860777	     18.44908534	     18.44908534	      8.64763885	     -2.80595087	     -5.68265738	     16.21355501	    -13.48457616	     -1.77167965	     56.02907981	     56.02907981	      6.28097466	    -17.16993937	     -1.13963126	     -9.02599506	      6.32796562	      1.19388625	     12.91879687	    -16.82853107	     -1.65332734	     48.18724029	     45.24162954	      0.00000000	      0.00000000	     10.57424053	    -11.40525162	     -6.28060005	     37.05019223	     46.28296051	      0.00000000	      0.00000000
     47.47100000	     -0.73703218	     -5.48644649	      1.06576598	      1.04001461	      0.93122795	      0.49336385	     11.22460286	      3.05465837	    -14.98542541	     18.11460793	     18.11460793	      8.85604642	     -2.82483444	     -5.69136626	     18.28694875	    -13.80423148	     -0.84263468	     58.73036526	     58.73036526	      4.90284912	    -17.61334536	     -0.20103134	     -9.04510751	      6.36312197	      1.17807737	     14.71061298	    -17.02534621	     -1.77075020	     49.37481644	     45.21748121	      0.00000000	      0.00000000	      9.68670133	    -11.11268388	     -6.05779109	     36.26304270	     46.24266629	      0.00000000	      0.00000000
     47.48435714	     -0.71454862	     -5.47982959	      1.44172152	      1.03909524	      0.93139416	      0.49521824	     10.73918175	      3.21344309	    -15.19039646	     17.84104333	     17.84104333	      9.01686881	     -2.97953525	     -5.92939164	     20.30539210	    -13.82024561	     -0.01612516	     61.21771092	     61.21771092	      5.55274570	    -17.49733465	      5.14023945	     -9.13066687	      6.27209578	      1.35072998	     16.06492050	    -17.69814580	     -1.04416946	     51.84600285	     45.12735235	      0.00000000	      0.00000000	      9.26318301	    -10.75541914	     -5.37865717	     34.55126822	     46.15961866	      0.00000000	      0.00000000
     47.49771429	     -0.74320781	     -5.51059603	      1.84022151	      1.03809478	      0.93159614	      0.49702055	     10.26014742	      3.43754495	    -15.37424261	     17.44578145	     17.44578145	      9.15762708	     -3.12596840	     -6.01188601	     22.12681161	    -13.91792629	      0.59344959	     62.84981903	     62.84981903	      5.39936617	    -17.77814330	      7.34273321	     -9.16239576	      6.20232876	      1.40061727	     17.67324076	    -18.03608296	     -0.92362953	     53.73557161	     45.08689622	      0.00000000	      0.00000000	      8.46222571	    -10.44279203	     -4.96965304	     33.48736543	     46.10451182	      0.00000000	      0.00000000
